<svg version="1.1" 
  id="Layer_1" 
  xmlns="http://www.w3.org/2000/svg" 
  xmlns:xlink="http://www.w3.org/1999/xlink" 
  x="0px" y="0px"
	viewBox="0 0 1980 1080" 
  style="enable-background:new 0 0 1980 1080;" 
  xml:space="preserve">
  <g>
    <path d="M605.6,344c0.6-5.4,2.2-9.3,4.8-11.7c2.6-2.4,5.6-3.3,9-2.9c3.4,0.5,6.8,2.3,10.2,5.4c3.4,3.1,6,7.3,7.8,12.8
      c2.2,5.6,4,11.4,5.5,17.3c1.5,5.9,3.2,12.4,5.3,19.3c3.4-5.2,6.5-10.1,9.5-14.7c2.9-4.6,5.8-9,8.8-13.2c9.2-12.2,20-22.3,32.3-30.3
      c12.3-8,25-15.2,38.3-21.6c22.4-11,45.2-19.4,68.5-25.4c23.3-5.9,47.5-7.8,72.8-5.9c27.6,2.2,53.2,8.5,76.8,18.9
      c23.6,10.4,45,25.7,64.2,45.9c10.6,11.2,18.5,23.6,23.5,37.2c5.1,13.6,8.1,28,9.2,43.2c2,27.6,0.1,54.4-5.7,80.3
      c-5.8,25.9-16,50.5-30.6,73.7c-34,54.4-75,98.5-122.9,132.4C845,738.6,789.2,761.4,725.6,773c-20.6,3.8-41.1,5.3-61.5,4.7
      c-20.4-0.7-40.9-4.3-61.5-10.7c-11.4-3.4-22.5-8.9-33.1-16.5c-10.7-7.6-20.4-16.6-29-27.1c-8.6-10.5-15.7-22.2-21.2-35.1
      c-5.5-12.9-8.7-26.5-9.4-40.9c-0.8-14.4,1.1-29.3,5.7-44.6c4.6-15.3,12.8-30.4,24.6-45.4c12.8-16.8,26.7-32.1,41.8-46.1
      c15.1-13.9,30.8-27.3,47-40.3c5-4,8.4-8.1,10.2-12.3s2.5-9.2,2.1-15c-0.6-12.6-2.1-24.9-4.5-36.9c-2.4-12-5.4-24-9-36
      c-1.2-4.2-3.1-7.3-5.7-9.3c-2.6-2-5.2-3.7-7.6-5.1c-2.5-1.4-4.7-2.9-6.5-4.5C606.2,350.2,605.4,347.6,605.6,344z M641.9,476.9
      c-0.4-0.8-1.1-1.1-2-1c-0.9,0.1-1.8,0.4-2.7,0.8c-0.9,0.4-1.8,1-2.7,1.6c-0.9,0.7-1.6,1.3-2.3,1.7c-16.4,12.4-31.9,25.7-46.3,39.8
      c-14.5,14.1-27.6,29.8-39.2,47c-9.6,14.4-16.8,29.5-21.6,45.1c-4.8,15.7-5.5,32.4-2.1,50c4.8,23.4,14.3,42.8,28.4,58
      c14.1,15.3,32.1,27.2,54.1,35.6c18.4,7,37.1,10.6,56.1,10.9c19,0.3,37.9-1.2,56.7-4.3c29-4.6,56.3-11.9,82-21.9
      c25.7-10,49.8-22.5,72.5-37.3c22.6-14.9,43.7-32.1,63.4-51.5c19.7-19.4,38-40.8,55.1-64.2c17.6-24.4,30.1-50.2,37.5-77.4
      c7.4-27.2,10.4-55.7,9-85.5c-0.6-13.8-3.1-26.9-7.5-39.3c-4.4-12.4-11.3-23.8-20.7-34.2c-18.4-20.6-39.1-36.3-62.1-47.3
      c-23-10.9-48.1-17.3-75.3-19.1c-15.6-1-30.8-0.4-45.6,1.6c-14.8,2.1-29.2,5.6-43.2,10.4c-14,4.8-27.6,10.8-40.8,18
      s-26.1,15.3-38.7,24.3c-5.8,4.2-11.3,9.1-16.3,14.5c-5.1,5.5-9.9,11.2-14.3,17c-8.4,11.4-13.6,23.5-15.5,36.1
      c-1.9,12.7-1.5,26,1.3,39.8c1,0,3.2-0.9,6.8-2.8c3.5-1.9,7.7-4.1,12.8-6.8c5-2.6,10.4-5.5,16.4-8.7c5.9-3.2,11.6-6.1,17.3-8.7
      c5.6-2.6,10.7-4.8,15.4-6.6c4.7-1.8,8.4-2.8,11.3-3c2.8-0.2,3.4,0.4,1.8,1.7c-1.6,1.3-4.5,3.3-8.7,5.8c-4.2,2.6-9.4,5.7-15.6,9.3
      c-6.2,3.6-12.4,7.6-18.8,11.9c-6.3,4.3-12.4,8.9-18.1,13.8c-5.8,4.9-10.4,9.9-13.8,14.8c-2,2.8-2.7,6.1-2,9.8
      c0.7,3.7,1.8,7.9,3.5,12.5c4.8,16.4,9.7,32.7,14.7,48.9c5,16.2,10,32.5,15,48.9c0.6,1.8,1.5,4.6,2.9,8.3c1.3,3.7,2.3,7.3,2.8,10.7
      c0.6,3.4,0.5,6.2-0.3,8.4c-0.8,2.2-3,2.8-6.6,1.8c-2.6,0-4.8-0.8-6.5-2.3c-1.7-1.5-3.2-3.3-4.5-5.4c-1.3-2.1-2.4-4.3-3.2-6.6
      c-0.8-2.3-1.6-4.1-2.4-5.6c-9.6-17-17.6-34.3-24-51.9c-6.4-17.6-10.2-36.2-11.4-55.8c-0.2-1.8-0.5-3.9-0.8-6.3
      C643,479.6,642.5,477.9,641.9,476.9z"/>
    <path d="M1149.5,539.9c-8.4-1.2-16-0.2-23,2.8c-6.9,3.1-12.5,7.4-16.8,12.8c-4.3,5.4-7,11.6-8,18.6c-1,7,0.3,13.9,3.9,20.7
      c2.2,1.6,4.3,1.4,6.4-0.6c2.1-2,4.2-5,6.3-8.8c2.1-3.9,4.1-8.3,6.1-13c2-4.8,3.9-9.2,5.9-13.4c1.9-4.1,3.8-7.4,5.5-9.9
      c1.8-2.5,3.6-3.3,5.4-2.6c1.4,0.6,2.6,1.8,3.8,3.6c1.1,1.8,2,3.9,2.9,6.1c0.8,2.3,1.5,4.6,2.3,6.9c0.7,2.3,1.3,4.3,2,6.2
      c2,6.4,4.2,11.4,6.6,14.8c2.4,3.5,4.7,6,7,7.3c2.3,1.4,4.4,2,6.5,1.8c2-0.2,3.7-0.6,5.1-1.2c1-0.6,2.2-1.5,3.6-2.7
      c1.4-1.2,2.8-2.5,4.2-3.9c1.4-1.4,2.7-2.6,3.9-3.6c1.2-1,2.2-1.5,3-1.5c1.8,0,2.3,1.5,1.7,4.5c-0.7,3-2.1,6.3-4,9.9
      c-2,3.6-4.5,6.9-7.5,9.9s-5.9,4.5-8.7,4.5c-3,0-5.8-0.5-8.4-1.5c-2.6-1-5.2-2.5-7.6-4.6c-2.5-2.1-5.2-4.7-8.1-8
      c-2.9-3.2-6.1-6.9-9.8-11.1c-3,3-5.3,6.2-6.9,9.6c-1.6,3.4-4.1,6.4-7.5,9c-4.4,4.4-9.2,7.6-14.4,9.5c-5.2,1.9-10.5,1.3-15.9-1.7
      c-5.2-2.8-8.1-6.8-8.7-11.8c-0.6-5.1-0.6-10.1,0-15.2c1-9.2,3.3-17.9,6.9-26.1c3.6-8.2,8.8-15.5,15.6-21.9c3.2-2.8,7.4-5.8,12.6-9
      c5.2-3.2,10-5.2,14.4-6c2.2-0.2,4.8,0.4,7.8,1.7c3,1.3,5.5,3,7.5,5.1c2,2.1,3,4.3,3.1,6.8C1154.3,536.3,1152.7,538.3,1149.5,539.9z
      "/>
    <path d="M1229.6,551.6c-1.2,3-2.4,6-3.5,9c-1.1,3-2.5,5.8-4,8.4c-2.4,4-4.9,7.9-7.5,11.7c-2.6,3.8-5.5,7.4-8.7,10.8
      c-2.8,2.8-6,3.8-9.5,3c-3.5-0.8-5.7-3.2-6.5-7.2c-0.8-5-1.2-11-1.2-18c0-7-0.3-13-0.9-18c-0.6-5.2-1.6-9.5-2.9-12.9
      c-1.3-3.4-2.2-7.7-2.5-12.9c-0.2-1.2,0.6-2.7,2.5-4.5c1.9-1.8,3.3-2.8,4.4-3c3.8-0.8,6.9-0.6,9.5,0.6c2.5,1.2,3.9,2.6,4.3,4.2
      c0.2,2.8,0.2,6.4,0.2,10.6c-0.1,4.3-0.2,8.5-0.2,12.8s0.2,8,0.8,11.4c0.5,3.4,1.5,5.5,3.2,6.3c0.6,0,1.3-1.1,2.3-3.3
      c0.9-2.2,1.9-4.8,3.1-8c1.2-3.1,2.3-6.3,3.5-9.6c1.1-3.3,2.1-6,3.2-8.3c1.4-3.4,3.2-6.4,5.5-9c2.3-2.6,5.3-3.4,8.8-2.4
      c2.6,0.8,5.1,2.5,7.5,5.3c2.4,2.7,4.1,5.5,5.1,8.3c2,6,3.4,12.1,4.3,18.3c0.9,6.2,2,12.5,3.5,18.9c1,9.4,2.7,17.3,5.3,23.5
      c2.5,6.3,5.3,13,8.3,20c-1.6,2.4-4.3,2.9-8.1,1.5c-3.8-1.4-7.1-4-9.9-7.8c-2.2-3.6-3.9-6.6-5-9c-1.1-2.4-2.2-5.6-3.2-9.6
      c-1.6-6.8-3-13.5-4-20.3c-1.1-6.7-2.3-13.5-3.5-20.5c0-1.4-0.5-2.3-1.5-2.5C1231.3,549,1230.4,549.8,1229.6,551.6z"/>
    <path d="M1321.4,592.7c3.4-6,6.8-12.2,10-18.6c3.3-6.4,6-12.8,8.3-19c2.2-6.3,3.6-12.5,4.2-18.6c0.6-6.1-0.1-12-2.1-17.8
      c-0.6-1.2-0.9-2.9-0.9-5s0.3-4.2,1-6.3c0.7-2.1,2-3.9,3.8-5.4c1.8-1.5,4.4-2.3,7.8-2.5c2.4,0,4.3,0.7,5.8,2
      c1.5,1.3,2.8,2.8,3.9,4.6c1.1,1.8,1.9,3.8,2.5,5.9c0.6,2.1,1.1,4,1.5,5.5c3.8,18.2,7.4,36.3,11,54.3c3.5,18,7.1,36.4,10.9,55.2
      c3.8-4.4,7.3-8.4,10.5-12c3.2-3.6,6.3-7.1,9.5-10.7c3.1-3.5,6.3-7.1,9.6-10.9c3.3-3.8,7.1-8.1,11.5-12.9c2-1.6,3.2-1.8,3.6-0.6
      c0.4,1.2,0.3,2.9-0.1,5.1c-0.5,2.2-1.3,4.5-2.3,6.9c-1,2.4-1.9,4.1-2.7,5.1c-2.2,2.8-4,5.1-5.3,6.9c-1.3,1.8-2.5,3.5-3.8,5.1
      c-1.2,1.6-2.5,3.3-3.8,5.1c-1.3,1.8-3.1,4.1-5.3,6.9c-16,20.4-23.8,44-23.4,70.8c0,6-0.1,12-0.3,18c-0.2,6-0.6,12-1.2,18
      c-0.4,3.8-1.2,7.5-2.3,11.3c-1.1,3.7-2.2,7.4-3.1,11c-1.4,4-2.9,5.8-4.5,5.4c-1.6-0.4-3.2-1.8-4.7-4.2c-1.5-2.4-2.8-5.3-3.9-8.7
      c-1.1-3.4-1.6-6-1.6-7.8c-0.2-6.4-0.4-12.8-0.6-19.2c-0.2-6.4,0.4-12.6,1.8-18.6c5.2-22.6,7-44.9,5.4-66.9c-1.6-22-5.2-44-10.8-66
      c-0.6-2.8-1.3-5.4-2-8c-0.7-2.5-1.5-5-2.3-7.6c-0.4-1.4-0.8-2.4-1-3c-0.3-0.6-0.6-0.9-0.9-0.9c-0.3,0-0.7,0.7-1,2.1l-8.1,24.3
      c-1.8,5-3.5,10-5.1,15.1c-1.6,5.1-3.7,10-6.3,14.5c-3.6,6.6-8.2,10.2-13.6,10.8c-5.5,0.6-11-1.7-16.4-6.9c-2.8-2.8-5.3-5.9-7.3-9.5
      c-2.1-3.5-3.9-7-5.3-10.6c-2.2-7-4.2-14-6-21.2c-1.8-7.1-3.5-14.3-5.1-21.5c-1.2-6.6-2.2-12.6-2.8-18c-0.7-5.4-1.3-11.4-1.7-18
      c-0.2-1.8-0.3-4.1-0.1-6.9c0.1-2.8,1.6-5.4,4.6-7.8c1.8-1.4,3.7-2.2,5.7-2.4c2-0.2,3.9,0,5.7,0.5c1.8,0.5,3.4,1.3,4.8,2.4
      c1.4,1.1,2.4,2.4,3,3.8c0.8,1.6,1,3.6,0.8,6c-0.3,2.4-0.8,5-1.3,7.7c-0.6,2.7-1.2,5.5-1.8,8.4c-0.6,2.9-0.8,5.7-0.6,8.3
      c0.4,5.8,1.1,11.9,2.1,18.2c1,6.3,2.1,13.3,3.3,20.8c0.4,2.8,1.3,6.1,2.8,9.8c1.5,3.7,3.2,7.1,5,10.1s3.6,5.4,5.5,7.2
      C1318.1,593.3,1319.8,593.7,1321.4,592.7z"/>
  </g>
</svg>